<mxfile host="app.diagrams.net" agent="Mozilla/5.0 (Windows NT 10.0; Win64; x64) AppleWebKit/537.36 (KHTML, like Gecko) Chrome/136.0.0.0 Safari/537.36" version="26.1.1" pages="2">
  <diagram name="Page-1" id="T_zbmvKe9Zy14KE6y2np">
    <mxGraphModel dx="1665" dy="2066" grid="1" gridSize="10" guides="1" tooltips="1" connect="1" arrows="1" fold="1" page="1" pageScale="1" pageWidth="850" pageHeight="1100" math="0" shadow="0">
      <root>
        <mxCell id="0" />
        <mxCell id="1" parent="0" />
        <mxCell id="19xzYETYqb3-DhoNCfy9-17" value="" style="edgeStyle=orthogonalEdgeStyle;rounded=0;orthogonalLoop=1;jettySize=auto;html=1;" edge="1" parent="1" source="19xzYETYqb3-DhoNCfy9-9" target="19xzYETYqb3-DhoNCfy9-16">
          <mxGeometry relative="1" as="geometry" />
        </mxCell>
        <mxCell id="19xzYETYqb3-DhoNCfy9-9" value="double click edge" style="rounded=1;whiteSpace=wrap;html=1;" vertex="1" parent="1">
          <mxGeometry x="675" y="-100" width="120" height="60" as="geometry" />
        </mxCell>
        <mxCell id="19xzYETYqb3-DhoNCfy9-14" value="" style="edgeStyle=orthogonalEdgeStyle;rounded=0;orthogonalLoop=1;jettySize=auto;html=1;" edge="1" parent="1" source="19xzYETYqb3-DhoNCfy9-10" target="19xzYETYqb3-DhoNCfy9-13">
          <mxGeometry relative="1" as="geometry" />
        </mxCell>
        <mxCell id="19xzYETYqb3-DhoNCfy9-10" value="&lt;span style=&quot;font-size: 12px;&quot;&gt;datastory.dev/table/&amp;lt;edge.id&amp;gt;&lt;/span&gt;" style="rounded=1;whiteSpace=wrap;html=1;" vertex="1" parent="1">
          <mxGeometry x="168" y="330" width="290" height="60" as="geometry" />
        </mxCell>
        <mxCell id="19xzYETYqb3-DhoNCfy9-12" value="open table in new tab&amp;nbsp;" style="text;html=1;align=center;verticalAlign=middle;resizable=0;points=[];autosize=1;strokeColor=none;fillColor=none;" vertex="1" parent="1">
          <mxGeometry x="310" y="129" width="150" height="30" as="geometry" />
        </mxCell>
        <mxCell id="19xzYETYqb3-DhoNCfy9-13" value="&lt;span style=&quot;text-wrap-mode: nowrap;&quot;&gt;TableNodeComponent&amp;nbsp;&lt;/span&gt;" style="whiteSpace=wrap;html=1;rounded=1;" vertex="1" parent="1">
          <mxGeometry x="243" y="470" width="140" height="70" as="geometry" />
        </mxCell>
        <mxCell id="19xzYETYqb3-DhoNCfy9-15" value="open the TableNodeComponent in full-screen mode" style="text;html=1;align=center;verticalAlign=middle;resizable=0;points=[];autosize=1;strokeColor=none;fillColor=none;" vertex="1" parent="1">
          <mxGeometry x="363" y="420" width="320" height="30" as="geometry" />
        </mxCell>
        <mxCell id="19xzYETYqb3-DhoNCfy9-19" style="edgeStyle=orthogonalEdgeStyle;rounded=0;orthogonalLoop=1;jettySize=auto;html=1;entryX=0.5;entryY=0;entryDx=0;entryDy=0;" edge="1" parent="1" source="19xzYETYqb3-DhoNCfy9-16" target="19xzYETYqb3-DhoNCfy9-10">
          <mxGeometry relative="1" as="geometry" />
        </mxCell>
        <mxCell id="19xzYETYqb3-DhoNCfy9-16" value="&lt;div&gt;&lt;span style=&quot;font-size: 12px;&quot;&gt;&amp;nbsp; &amp;nbsp; &amp;nbsp; &amp;lt;DataStory&lt;/span&gt;&lt;/div&gt;&lt;div&gt;&lt;span style=&quot;font-size: 12px;&quot;&gt;&amp;nbsp; &amp;nbsp; &amp;nbsp; &amp;nbsp; client={client}&lt;/span&gt;&lt;/div&gt;&lt;div&gt;&lt;span style=&quot;font-size: 12px;&quot;&gt;&amp;nbsp; &amp;nbsp; &amp;nbsp; &amp;nbsp; onEdgeDoubleClick={(edgeId) =&amp;gt; {&lt;/span&gt;&lt;/div&gt;&lt;div&gt;&lt;span style=&quot;font-size: 12px;&quot;&gt;&amp;nbsp; &amp;nbsp; &amp;nbsp; &amp;nbsp; &amp;nbsp; &amp;nbsp;//&amp;nbsp;&lt;/span&gt;&lt;span style=&quot;text-align: center; text-wrap-mode: nowrap; background-color: transparent; color: light-dark(rgb(0, 0, 0), rgb(255, 255, 255));&quot;&gt;open table in new tab&amp;nbsp;&lt;/span&gt;&lt;/div&gt;&lt;div&gt;&lt;span style=&quot;font-size: 12px;&quot;&gt;&amp;nbsp; &amp;nbsp; &amp;nbsp; &amp;nbsp; }}&lt;/span&gt;&lt;/div&gt;&lt;div&gt;&lt;span style=&quot;font-size: 12px;&quot;&gt;&amp;nbsp; &amp;nbsp; &amp;nbsp; &amp;gt;&lt;/span&gt;&lt;/div&gt;&lt;div&gt;&lt;span style=&quot;background-color: transparent; color: light-dark(rgb(0, 0, 0), rgb(255, 255, 255));&quot;&gt;&amp;nbsp; &amp;nbsp; &amp;nbsp; &amp;lt;/DataStory&amp;gt;&lt;/span&gt;&lt;/div&gt;" style="rounded=1;whiteSpace=wrap;html=1;align=left;" vertex="1" parent="1">
          <mxGeometry x="595" y="90" width="280" height="150" as="geometry" />
        </mxCell>
        <mxCell id="19xzYETYqb3-DhoNCfy9-18" value="trigger&amp;nbsp;&amp;nbsp;&lt;span style=&quot;text-wrap-mode: wrap;&quot;&gt;onEdgeDoubleClick event in DataStory&lt;/span&gt;" style="text;html=1;align=center;verticalAlign=middle;resizable=0;points=[];autosize=1;strokeColor=none;fillColor=none;" vertex="1" parent="1">
          <mxGeometry x="700" width="290" height="30" as="geometry" />
        </mxCell>
        <mxCell id="19xzYETYqb3-DhoNCfy9-21" value="&lt;div&gt;&lt;span style=&quot;font-size: 12px;&quot;&gt;&amp;nbsp; &amp;nbsp; &amp;nbsp;{&lt;/span&gt;&lt;/div&gt;&lt;div&gt;&lt;span style=&quot;text-wrap-mode: nowrap;&quot;&gt;&amp;nbsp; &amp;nbsp; &amp;nbsp; &amp;nbsp;const isTable = dsExtensionInitialData().documentId.endsWith(&#39;.ds.table&#39;);&lt;/span&gt;&lt;span style=&quot;font-size: 12px;&quot;&gt;&lt;/span&gt;&lt;/div&gt;&lt;div&gt;&lt;span style=&quot;font-size: 12px;&quot;&gt;&amp;nbsp; &amp;nbsp; &amp;nbsp; &amp;nbsp; isTable ? &amp;lt;TableApp /&amp;gt; : &amp;lt;DataStoryApp /&amp;gt;&lt;/span&gt;&lt;/div&gt;&lt;div&gt;&lt;span style=&quot;font-size: 12px;&quot;&gt;&amp;nbsp; &amp;nbsp;}&lt;/span&gt;&lt;/div&gt;" style="rounded=1;whiteSpace=wrap;html=1;align=left;" vertex="1" parent="1">
          <mxGeometry x="965" y="550" width="450" height="90" as="geometry" />
        </mxCell>
        <mxCell id="1xnDMjYjaWeccYKzjDIU-10" style="edgeStyle=orthogonalEdgeStyle;rounded=0;orthogonalLoop=1;jettySize=auto;html=1;" edge="1" parent="1" source="1xnDMjYjaWeccYKzjDIU-3" target="19xzYETYqb3-DhoNCfy9-21">
          <mxGeometry relative="1" as="geometry" />
        </mxCell>
        <mxCell id="1xnDMjYjaWeccYKzjDIU-3" value="&lt;span style=&quot;font-size: 12px;&quot;&gt;&lt;br&gt;vscode.workspace.openTableDocument&lt;/span&gt;" style="rounded=1;whiteSpace=wrap;html=1;" vertex="1" parent="1">
          <mxGeometry x="1075" y="400" width="230" height="60" as="geometry" />
        </mxCell>
        <mxCell id="1xnDMjYjaWeccYKzjDIU-4" value="vscode open new tab (.ds.table)" style="text;html=1;align=center;verticalAlign=middle;resizable=0;points=[];autosize=1;strokeColor=none;fillColor=none;" vertex="1" parent="1">
          <mxGeometry x="920" y="129" width="210" height="30" as="geometry" />
        </mxCell>
        <mxCell id="1xnDMjYjaWeccYKzjDIU-8" style="edgeStyle=orthogonalEdgeStyle;rounded=0;orthogonalLoop=1;jettySize=auto;html=1;" edge="1" parent="1" source="1xnDMjYjaWeccYKzjDIU-5" target="1xnDMjYjaWeccYKzjDIU-3">
          <mxGeometry relative="1" as="geometry" />
        </mxCell>
        <mxCell id="1xnDMjYjaWeccYKzjDIU-5" value="&lt;div&gt;&lt;span style=&quot;font-size: 12px;&quot;&gt;&amp;nbsp; const onEdgeDoubleClick = useCallback((edgeId: string) =&amp;gt; {&lt;/span&gt;&lt;/div&gt;&lt;div&gt;&lt;span style=&quot;font-size: 12px;&quot;&gt;&amp;nbsp; &amp;nbsp; // open a new tab (.ds.table)&lt;/span&gt;&lt;/div&gt;&lt;div&gt;&lt;span style=&quot;font-size: 12px;&quot;&gt;&amp;nbsp; &amp;nbsp; vscode.commands.executeCommand(&#39;ds-ext.openTable&#39;, vscode.Uri.file(edgeId));&lt;/span&gt;&lt;/div&gt;&lt;div&gt;&lt;span style=&quot;font-size: 12px;&quot;&gt;&amp;nbsp; }, []);&lt;/span&gt;&lt;/div&gt;" style="rounded=1;whiteSpace=wrap;html=1;align=left;" vertex="1" parent="1">
          <mxGeometry x="1000" y="210" width="380" height="120" as="geometry" />
        </mxCell>
        <mxCell id="1xnDMjYjaWeccYKzjDIU-6" style="edgeStyle=orthogonalEdgeStyle;rounded=0;orthogonalLoop=1;jettySize=auto;html=1;entryX=0.5;entryY=0;entryDx=0;entryDy=0;" edge="1" parent="1" source="19xzYETYqb3-DhoNCfy9-16" target="1xnDMjYjaWeccYKzjDIU-5">
          <mxGeometry relative="1" as="geometry">
            <Array as="points">
              <mxPoint x="1190" y="165" />
            </Array>
          </mxGeometry>
        </mxCell>
        <mxCell id="1xnDMjYjaWeccYKzjDIU-9" value="trigger the ds-ext.openTable command registered in extension.ts." style="text;html=1;align=center;verticalAlign=middle;resizable=0;points=[];autosize=1;strokeColor=none;fillColor=none;" vertex="1" parent="1">
          <mxGeometry x="1230" y="345" width="400" height="30" as="geometry" />
        </mxCell>
        <mxCell id="1xnDMjYjaWeccYKzjDIU-11" value="open the tableApp in the ds-ext UI" style="text;html=1;align=center;verticalAlign=middle;resizable=0;points=[];autosize=1;strokeColor=none;fillColor=none;" vertex="1" parent="1">
          <mxGeometry x="1210" y="490" width="220" height="30" as="geometry" />
        </mxCell>
        <mxCell id="1xnDMjYjaWeccYKzjDIU-12" value="&lt;font style=&quot;font-size: 21px;&quot;&gt;website&lt;/font&gt;" style="shape=note;strokeWidth=2;fontSize=14;size=20;whiteSpace=wrap;html=1;fillColor=#fff2cc;strokeColor=#d6b656;fontColor=#666600;" vertex="1" parent="1">
          <mxGeometry x="383" y="-40" width="110.00000000000001" height="80" as="geometry" />
        </mxCell>
        <mxCell id="1xnDMjYjaWeccYKzjDIU-13" value="&lt;font style=&quot;font-size: 21px;&quot;&gt;ds-ext&lt;/font&gt;" style="shape=note;strokeWidth=2;fontSize=14;size=20;whiteSpace=wrap;html=1;fillColor=#fff2cc;strokeColor=#d6b656;fontColor=#666600;" vertex="1" parent="1">
          <mxGeometry x="1130" y="-40" width="110.00000000000001" height="80" as="geometry" />
        </mxCell>
      </root>
    </mxGraphModel>
  </diagram>
  <diagram id="PPDxAfDycoBkD5GxSw8p" name="Page-2">
    <mxGraphModel dx="1082" dy="1728" grid="1" gridSize="10" guides="1" tooltips="1" connect="1" arrows="1" fold="1" page="1" pageScale="1" pageWidth="850" pageHeight="1100" math="0" shadow="0">
      <root>
        <mxCell id="0" />
        <mxCell id="1" parent="0" />
        <mxCell id="zFkiKzCzXed6k6_4gd_a-1" value="" style="edgeStyle=orthogonalEdgeStyle;rounded=0;orthogonalLoop=1;jettySize=auto;html=1;" edge="1" parent="1" source="zFkiKzCzXed6k6_4gd_a-2" target="zFkiKzCzXed6k6_4gd_a-10">
          <mxGeometry relative="1" as="geometry" />
        </mxCell>
        <mxCell id="zFkiKzCzXed6k6_4gd_a-2" value="double click edge" style="rounded=1;whiteSpace=wrap;html=1;" vertex="1" parent="1">
          <mxGeometry x="675" y="-100" width="120" height="60" as="geometry" />
        </mxCell>
        <mxCell id="zFkiKzCzXed6k6_4gd_a-3" value="" style="edgeStyle=orthogonalEdgeStyle;rounded=0;orthogonalLoop=1;jettySize=auto;html=1;" edge="1" parent="1" source="zFkiKzCzXed6k6_4gd_a-4" target="zFkiKzCzXed6k6_4gd_a-6">
          <mxGeometry relative="1" as="geometry" />
        </mxCell>
        <mxCell id="zFkiKzCzXed6k6_4gd_a-4" value="&lt;span style=&quot;font-size: 12px;&quot;&gt;datastory.dev/table/&amp;lt;edge.id&amp;gt;&lt;/span&gt;" style="rounded=1;whiteSpace=wrap;html=1;" vertex="1" parent="1">
          <mxGeometry x="168" y="330" width="290" height="60" as="geometry" />
        </mxCell>
        <mxCell id="zFkiKzCzXed6k6_4gd_a-5" value="open table in new tab&amp;nbsp;" style="text;html=1;align=center;verticalAlign=middle;resizable=0;points=[];autosize=1;strokeColor=none;fillColor=none;" vertex="1" parent="1">
          <mxGeometry x="363" y="120" width="150" height="30" as="geometry" />
        </mxCell>
        <mxCell id="zFkiKzCzXed6k6_4gd_a-6" value="&lt;span style=&quot;text-wrap-mode: nowrap;&quot;&gt;TableNodeComponent&amp;nbsp;&lt;/span&gt;" style="whiteSpace=wrap;html=1;rounded=1;" vertex="1" parent="1">
          <mxGeometry x="243" y="470" width="140" height="70" as="geometry" />
        </mxCell>
        <mxCell id="zFkiKzCzXed6k6_4gd_a-7" value="open the TableNodeComponent in full-screen mode" style="text;html=1;align=center;verticalAlign=middle;resizable=0;points=[];autosize=1;strokeColor=none;fillColor=none;" vertex="1" parent="1">
          <mxGeometry x="363" y="420" width="320" height="30" as="geometry" />
        </mxCell>
        <mxCell id="zFkiKzCzXed6k6_4gd_a-8" style="edgeStyle=orthogonalEdgeStyle;rounded=0;orthogonalLoop=1;jettySize=auto;html=1;entryX=0.5;entryY=0;entryDx=0;entryDy=0;" edge="1" parent="1" source="zFkiKzCzXed6k6_4gd_a-10" target="zFkiKzCzXed6k6_4gd_a-4">
          <mxGeometry relative="1" as="geometry" />
        </mxCell>
        <mxCell id="zFkiKzCzXed6k6_4gd_a-9" style="edgeStyle=orthogonalEdgeStyle;rounded=0;orthogonalLoop=1;jettySize=auto;html=1;" edge="1" parent="1" source="zFkiKzCzXed6k6_4gd_a-10" target="zFkiKzCzXed6k6_4gd_a-12">
          <mxGeometry relative="1" as="geometry">
            <mxPoint x="1070" y="300" as="targetPoint" />
          </mxGeometry>
        </mxCell>
        <mxCell id="zFkiKzCzXed6k6_4gd_a-10" value="&lt;div&gt;&lt;span style=&quot;font-size: 12px;&quot;&gt;&amp;nbsp; &amp;nbsp; &amp;nbsp; &amp;lt;DataStory&lt;/span&gt;&lt;/div&gt;&lt;div&gt;&lt;span style=&quot;font-size: 12px;&quot;&gt;&amp;nbsp; &amp;nbsp; &amp;nbsp; &amp;nbsp; client={client}&lt;/span&gt;&lt;/div&gt;&lt;div&gt;&lt;span style=&quot;font-size: 12px;&quot;&gt;&amp;nbsp; &amp;nbsp; &amp;nbsp; &amp;nbsp; onEdgeDoubleClick={(edgeId) =&amp;gt; {&lt;/span&gt;&lt;/div&gt;&lt;div&gt;&lt;span style=&quot;font-size: 12px;&quot;&gt;&amp;nbsp; &amp;nbsp; &amp;nbsp; &amp;nbsp; &amp;nbsp; &amp;nbsp;//&amp;nbsp;&lt;/span&gt;&lt;span style=&quot;text-align: center; text-wrap-mode: nowrap; background-color: transparent; color: light-dark(rgb(0, 0, 0), rgb(255, 255, 255));&quot;&gt;open table in new tab&amp;nbsp;&lt;/span&gt;&lt;/div&gt;&lt;div&gt;&lt;span style=&quot;font-size: 12px;&quot;&gt;&amp;nbsp; &amp;nbsp; &amp;nbsp; &amp;nbsp; }}&lt;/span&gt;&lt;/div&gt;&lt;div&gt;&lt;span style=&quot;font-size: 12px;&quot;&gt;&amp;nbsp; &amp;nbsp; &amp;nbsp; &amp;gt;&lt;/span&gt;&lt;/div&gt;&lt;div&gt;&lt;span style=&quot;background-color: transparent; color: light-dark(rgb(0, 0, 0), rgb(255, 255, 255));&quot;&gt;&amp;nbsp; &amp;nbsp; &amp;nbsp; &amp;lt;/DataStory&amp;gt;&lt;/span&gt;&lt;/div&gt;" style="rounded=1;whiteSpace=wrap;html=1;align=left;" vertex="1" parent="1">
          <mxGeometry x="595" y="90" width="280" height="150" as="geometry" />
        </mxCell>
        <mxCell id="zFkiKzCzXed6k6_4gd_a-11" value="trigger&amp;nbsp;&amp;nbsp;&lt;span style=&quot;text-wrap-mode: wrap;&quot;&gt;onEdgeDoubleClick event in DataStory&lt;/span&gt;" style="text;html=1;align=center;verticalAlign=middle;resizable=0;points=[];autosize=1;strokeColor=none;fillColor=none;" vertex="1" parent="1">
          <mxGeometry x="700" width="290" height="30" as="geometry" />
        </mxCell>
        <mxCell id="zFkiKzCzXed6k6_4gd_a-12" value="" style="rounded=1;whiteSpace=wrap;html=1;" vertex="1" parent="1">
          <mxGeometry x="1010" y="270" width="120" height="60" as="geometry" />
        </mxCell>
      </root>
    </mxGraphModel>
  </diagram>
</mxfile>
